<svg width="20" height="20" viewBox="0 0 20 20" fill="none" xmlns="http://www.w3.org/2000/svg">
<path fill-rule="evenodd" clip-rule="evenodd" d="M17.3088 1.22279C17.3094 1.22297 17.3099 1.22325 17.3109 1.22429L18.7757 2.68907C18.7768 2.69012 18.7771 2.6906 18.7772 2.69121C18.7774 2.69178 18.7774 2.69239 18.7772 2.69296C18.7771 2.69354 18.7768 2.69403 18.7757 2.69507L11.4708 10L18.7757 17.305C18.7768 17.306 18.7771 17.3065 18.7772 17.3071C18.7774 17.3077 18.7774 17.3083 18.7772 17.3089C18.7771 17.3094 18.7768 17.3099 18.7757 17.311L17.3109 18.7758C17.3099 18.7768 17.3094 18.7771 17.3088 18.7773C17.3082 18.7774 17.3076 18.7774 17.3071 18.7773C17.3065 18.7771 17.306 18.7768 17.305 18.7758L10 11.4708L2.69504 18.7758C2.69402 18.7768 2.69351 18.7771 2.69293 18.7773C2.69235 18.7774 2.69173 18.7774 2.69115 18.7773C2.69059 18.7771 2.69008 18.7768 2.68904 18.7758L1.22426 17.311C1.22322 17.3099 1.22294 17.3095 1.22276 17.3088C1.22259 17.3083 1.22259 17.3077 1.22276 17.3071C1.22294 17.3065 1.22322 17.306 1.22426 17.305L8.52919 10L1.22426 2.69507C1.22322 2.69405 1.22294 2.69354 1.22276 2.69296C1.22258 2.69238 1.22258 2.69176 1.22276 2.69118C1.22294 2.69062 1.22322 2.69012 1.22426 2.68907L2.68904 1.22429C2.69008 1.22325 2.69057 1.22297 2.69118 1.22279C2.69175 1.22262 2.69236 1.22262 2.69293 1.22279C2.69351 1.22297 2.69399 1.22325 2.69504 1.22429L10 8.52922L17.305 1.22429C17.306 1.22325 17.3065 1.22297 17.3071 1.22279C17.3076 1.22261 17.3083 1.22261 17.3088 1.22279H17.3088Z" fill="black" stroke="white"/>
</svg>
