<svg width="26" height="31" viewBox="0 0 26 31" fill="none" xmlns="http://www.w3.org/2000/svg">
<path d="M11.6667 24.5938C5.66673 23.9305 1 18.8438 1 12.667C1 6.03958 6.37259 0.666992 13 0.666992C19.6275 0.666992 25 6.03958 25 12.667C25 18.8438 20.3333 23.9305 14.3333 24.5938V30.0003H11.6667V24.5938Z" fill="#FCDC2A" stroke="#3C3C3C"/>
<path d="M9.0034 6C7.34452 6 6 7.44388 6 9.225C6 10.75 6.98612 12.028 8.31061 12.3634L7.81305 19.8233C7.77901 20.3291 8.20249 20.7429 8.75311 20.7429H9.25368C9.8043 20.7429 10.2268 20.3291 10.1937 19.8233L9.69618 12.3634C11.0207 12.0271 12.0068 10.75 12.0068 9.225C12.0068 7.44388 10.6623 6 9.0034 6ZM19.0978 6L18.2639 10.6071H17.6382L17.2207 6H16.8032L16.3857 10.6071H15.76L14.9261 6H14.5086V11.9893C14.5086 12.2436 14.7329 12.45 15.0092 12.45H16.3127L15.8211 19.8233C15.7871 20.3291 16.2105 20.7429 16.7612 20.7429H17.2617C17.8124 20.7429 18.2348 20.3291 18.2018 19.8233L17.7102 12.45H19.0137C19.29 12.45 19.5143 12.2436 19.5143 11.9893V6H19.0968H19.0978Z" fill="#2A6448"/>
</svg>
