<svg width="21" height="29" viewBox="0 0 21 29" fill="none" xmlns="http://www.w3.org/2000/svg">
<path d="M10.3333 1C5.17333 1 1 5.17333 1 10.3333C1 12.6533 1.66667 14.8267 2.88 16.7867C4.14667 18.84 5.81333 20.6 7.09333 22.6533C7.72 23.6533 8.17333 24.5867 8.65333 25.6667C9 26.4 9.28 27.6667 10.3333 27.6667C11.3867 27.6667 11.6667 26.4 12 25.6667C12.4933 24.5867 12.9333 23.6533 13.56 22.6533C14.84 20.6133 16.5067 18.8533 17.7733 16.7867C19 14.8267 19.6667 12.6533 19.6667 10.3333C19.6667 5.17333 15.4933 1 10.3333 1ZM10.3333 14C9.44928 14 8.60143 13.6488 7.97631 13.0237C7.35119 12.3986 7 11.5507 7 10.6667C7 9.78261 7.35119 8.93477 7.97631 8.30964C8.60143 7.68452 9.44928 7.33333 10.3333 7.33333C11.2174 7.33333 12.0652 7.68452 12.6904 8.30964C13.3155 8.93477 13.6667 9.78261 13.6667 10.6667C13.6667 11.5507 13.3155 12.3986 12.6904 13.0237C12.0652 13.6488 11.2174 14 10.3333 14Z" fill="#2A6448" stroke="#3C3C3C"/>
</svg>
